<svg width="514" height="423" viewBox="0 0 514 423" fill="none" xmlns="http://www.w3.org/2000/svg">
<path d="M460.845 768.275C435.402 820.979 400.821 870.38 357.1 914.101C313.379 957.822 263.978 992.402 211.274 1017.85L460.845 768.275ZM513.936 541.812C513.57 572.427 510.593 603.015 505.01 633.217L76.2157 1062.01C46.014 1067.59 15.4256 1070.57 -15.1889 1070.94L513.936 541.812ZM493.616 388.759C499.955 411.114 504.812 433.801 508.19 456.664L-100.337 1065.19C-123.2 1061.81 -145.886 1056.96 -168.241 1050.62L493.616 388.759ZM442.024 266.979C452.362 284.812 461.588 303.113 469.698 321.782L-235.219 1026.7C-253.888 1018.59 -272.189 1009.36 -290.021 999.024L442.024 266.979ZM367.885 167.746C381.437 182.089 394.047 196.998 405.714 212.394L-344.606 962.714C-360.002 951.047 -374.911 938.438 -389.255 924.885L367.885 167.746ZM273.777 88.4799C290.017 99.2393 305.799 110.978 321.041 123.694L-433.307 878.042C-446.023 862.8 -457.762 847.018 -468.521 830.778L273.777 88.4799ZM158.163 30.7209C177.84 37.7158 197.19 45.8953 216.101 55.2618L-501.739 773.102C-511.106 754.191 -519.285 734.841 -526.28 715.164L158.163 30.7209ZM14.522 0.989988C38.8734 2.62724 63.1342 5.91933 87.1213 10.8695L-546.131 644.122C-551.082 620.135 -554.374 595.874 -556.011 571.523L14.522 0.989988ZM-182.139 24.2789C-148.136 13.6314 -113.281 6.45473 -78.129 2.7474L-554.254 478.872C-550.546 443.72 -543.369 408.864 -532.721 374.861L-182.139 24.2789Z" fill="#68B1FC"/>
</svg>
