<svg width="75" height="75" viewBox="0 0 75 75" fill="none" xmlns="http://www.w3.org/2000/svg">
<ellipse cx="37.4999" cy="37.5" rx="37.4999" ry="37.5" fill="#F8933F"/>
<path d="M53.5499 21.2623C53.2783 21.0744 52.9618 20.9615 52.6326 20.9352C52.3033 20.9088 51.973 20.9699 51.6749 21.1123L19.8 36.1123C19.4751 36.267 19.2016 36.5119 19.0121 36.8177C18.8226 37.1236 18.7251 37.4775 18.7312 37.8373C18.7372 38.1968 18.8464 38.5471 19.0459 38.8463C19.2453 39.1455 19.5266 39.381 19.8562 39.5248L30 43.9686V56.5686L40.9499 48.7498L49.8749 52.6498C50.1092 52.7611 50.3655 52.8188 50.6249 52.8186C50.9696 52.8162 51.3069 52.7189 51.5999 52.5373C51.858 52.381 52.0747 52.1648 52.2313 51.9069C52.388 51.649 52.4802 51.3572 52.4999 51.0561L54.3749 22.9311C54.3946 22.6051 54.3288 22.2797 54.1841 21.9871C54.0394 21.6944 53.8208 21.4445 53.5499 21.2623ZM48.9374 48.1498L39.0562 43.8186L44.9999 32.1936L30.6562 40.1623L25.1625 37.7436L50.4187 25.8561L48.9374 48.1498Z" fill="#FAFAFA"/>
</svg>
