<svg width="1920" height="180" viewBox="0 0 1920 180" fill="none" xmlns="http://www.w3.org/2000/svg">
<path d="M27.339 -43.3588C-103.51 -53.3786 -131.311 -117.116 -128.855 -147.732V-610H2113.86V-147.732C2116.31 -117.116 2088.51 -53.3786 1957.66 -43.3588C1794.1 -30.834 1798.52 13.0029 1773.47 48.4897C1748.42 83.9766 1708.64 119.464 1568.65 91.2828C1428.66 63.102 1291.63 53.7084 1187.01 120.507C1103.31 173.946 1022.29 180 992.5 180C962.71 180 881.691 173.946 797.994 120.507C693.374 53.7084 556.336 63.102 416.35 91.2828C276.365 119.464 236.58 83.9766 211.53 48.4897C186.48 13.0029 190.901 -30.834 27.339 -43.3588Z" fill="black"/>
<path d="M27.339 -43.3588C-103.51 -53.3786 -131.311 -117.116 -128.855 -147.732V-610H2113.86V-147.732C2116.31 -117.116 2088.51 -53.3786 1957.66 -43.3588C1794.1 -30.834 1798.52 13.0029 1773.47 48.4897C1748.42 83.9766 1708.64 119.464 1568.65 91.2828C1428.66 63.102 1291.63 53.7084 1187.01 120.507C1103.31 173.946 1022.29 180 992.5 180C962.71 180 881.691 173.946 797.994 120.507C693.374 53.7084 556.336 63.102 416.35 91.2828C276.365 119.464 236.58 83.9766 211.53 48.4897C186.48 13.0029 190.901 -30.834 27.339 -43.3588Z" fill="url(#paint0_linear_141_532)"/>
<defs>
<linearGradient id="paint0_linear_141_532" x1="-899.393" y1="101.901" x2="1638.94" y2="-157.238" gradientUnits="userSpaceOnUse">
<stop offset="1" stop-color="#1D1534"/>
</linearGradient>
</defs>
</svg>
