<svg width="1579" height="1711" viewBox="0 0 1579 1711" fill="none" xmlns="http://www.w3.org/2000/svg">
<path d="M379.097 56.6718C293.084 -42.9073 334.061 -127.564 365.301 -157.444L809.885 -633.901L2449.29 895.841L2004.71 1372.3C1977.06 1405.53 1895.44 1452.26 1790.15 1373.34C1658.54 1274.68 1619.62 1322.88 1567.18 1342.37C1514.73 1361.86 1451.52 1371.3 1376.3 1246.77C1301.07 1122.24 1209.93 1019.08 1069.21 1016.57C956.633 1014.56 891.587 965.538 869.81 945.218C848.034 924.899 794.631 863.396 784.845 751.228C772.611 611.017 663.403 527.226 533.971 460.789C404.54 394.351 409.587 330.638 425.405 276.975C441.223 223.313 486.614 181.146 379.097 56.6718Z" fill="black"/>
<path d="M379.097 56.6718C293.084 -42.9073 334.061 -127.564 365.301 -157.444L809.885 -633.901L2449.29 895.841L2004.71 1372.3C1977.06 1405.53 1895.44 1452.26 1790.15 1373.34C1658.54 1274.68 1619.62 1322.88 1567.18 1342.37C1514.73 1361.86 1451.52 1371.3 1376.3 1246.77C1301.07 1122.24 1209.93 1019.08 1069.21 1016.57C956.633 1014.56 891.587 965.538 869.81 945.218C848.034 924.899 794.631 863.396 784.845 751.228C772.611 611.017 663.403 527.226 533.971 460.789C404.54 394.351 409.587 330.638 425.405 276.975C441.223 223.313 486.614 181.146 379.097 56.6718Z" fill="url(#paint0_linear_212_7)"/>
<path d="M350.841 -565.233C297.662 -685.592 361.578 -754.589 400.183 -774.042L964.541 -1099.87L2085.68 841.988L1921.32 1017.82C1885.17 1041.53 1793.46 1062.38 1715.81 956.147C1618.76 823.354 1567.45 858.08 1511.6 861.404C1455.76 864.727 1066.34 955.453 956.969 854.222C850.197 755.398 864.356 597.876 730.505 554.373C623.424 519.571 575.532 453.687 560.64 427.893C545.748 402.099 512.637 327.681 536.038 217.545C565.289 79.8753 485.315 -32.1588 380.932 -133.502C276.549 -234.846 299.984 -294.307 330.785 -341.01C361.587 -387.713 417.315 -414.784 350.841 -565.233Z" fill="black"/>
<path d="M350.841 -565.233C297.662 -685.592 361.578 -754.589 400.183 -774.042L964.541 -1099.87L2085.68 841.988L1921.32 1017.82C1885.17 1041.53 1793.46 1062.38 1715.81 956.147C1618.76 823.354 1567.45 858.08 1511.6 861.404C1455.76 864.727 1066.34 955.453 956.969 854.222C850.197 755.398 864.356 597.876 730.505 554.373C623.424 519.571 575.532 453.687 560.64 427.893C545.748 402.099 512.637 327.681 536.038 217.545C565.289 79.8753 485.315 -32.1588 380.932 -133.502C276.549 -234.846 299.984 -294.307 330.785 -341.01C361.587 -387.713 417.315 -414.784 350.841 -565.233Z" fill="url(#paint1_linear_212_7)"/>
<path fill-rule="evenodd" clip-rule="evenodd" d="M1393.75 464.425C1393.75 446.359 1399.09 423.912 1413.66 419.222C1418.55 417.647 1423.94 419.62 1426.78 421.894C1432.89 426.799 1435.92 436.847 1436.24 444.975C1436.36 447.983 1437.04 449.299 1436.6 452.648C1436.27 455.165 1436.35 457.433 1436.19 460.135L1435.2 467.202C1433.41 474.5 1432.74 478.784 1429.84 486.312C1422.12 506.322 1405.58 516.682 1397.64 495.603C1394.03 486.018 1393.76 476.049 1393.75 464.425ZM1008.15 299.129C1008.34 297.958 1008.57 298.058 1008.78 296.685C1009.37 292.811 1010.3 289.469 1011.26 285.766C1016.31 266.22 1030.56 239.687 1043.07 223.564C1055.29 207.831 1065.97 194.697 1084.69 184.396C1095.3 178.557 1112.97 172.63 1126.85 178.685C1138.51 183.769 1138.98 189.782 1151.84 194.237C1168.52 200.02 1196.48 194.626 1211.31 191.396C1215.2 190.55 1218.81 189.82 1222.64 189.004C1237.38 185.858 1265.98 175.549 1275.13 190.992C1282.61 203.613 1276.98 211.212 1305.01 241.868C1313.1 250.722 1322 259.315 1333.26 267.479C1336.23 269.638 1338.78 271.324 1341.37 273.013C1349.83 278.537 1360.61 283.62 1371.14 283.627C1382.52 283.635 1384.27 280.87 1392.07 277.484C1395.89 275.827 1400.06 276.006 1402.56 278.663C1409.68 286.238 1404.37 304.511 1402.07 311.596C1396.25 329.503 1392.17 333.865 1385.35 348.582C1381.65 356.58 1380.5 358.479 1377.17 367.298C1372.99 378.379 1368.64 403.009 1370.12 413.705C1370.42 415.882 1370.46 417.95 1370.52 420.473L1372.83 437.944C1372.92 440.158 1372.7 442.506 1373.11 444.579C1374.75 452.885 1371.93 471.37 1369.93 480.84C1368.02 489.819 1366.72 493.657 1364.22 501.996L1358.93 516.864C1357.5 520.264 1356.63 523.291 1355.17 526.389C1347.09 543.588 1347.03 544.976 1336.67 561.597C1332.77 567.847 1329.17 571.779 1325.09 576.996C1318.93 584.872 1307.87 593.379 1297.77 596.96C1296.18 597.523 1294.42 597.894 1292.57 598.396C1284.62 600.558 1275.39 597.74 1270.57 594.063C1261.73 587.326 1253.47 572.714 1248.08 562.799C1241.87 551.377 1235.33 538.859 1230 527.073C1228.5 523.759 1227.26 520.757 1225.93 517.499C1222.56 509.279 1221.56 505.756 1219.36 497.223C1216.6 486.554 1217.75 473.628 1213.87 462.572C1210.37 452.592 1205.23 444.788 1199.64 436.208C1197.89 433.513 1196.01 430.678 1194.26 428.329C1186.97 418.538 1178.99 408.216 1169.68 399.113C1159.63 389.285 1149.17 380.429 1133.77 380.959C1123.49 381.313 1116.28 386.753 1108.25 389.524C1102.62 391.468 1099.65 392.962 1092.95 394.097C1056.7 400.233 1021.97 377.256 1011.16 344.074C1006.94 331.098 1008.54 331.548 1006.99 321.377C1006.45 317.81 1007.47 303.561 1008.15 299.128L1008.15 299.129ZM1199.81 118.83C1186.43 108.452 1174.09 108.328 1162.84 118.83L1153.17 129.197C1148.26 134.652 1142.82 138.773 1136.19 141.874C1134.57 142.631 1130.78 143.99 1128.71 144.191C1110.53 145.952 1110.3 132.937 1106.26 127.153C1099.49 117.473 1087.25 118.18 1077.53 122.754C1071.1 125.779 1071.02 128.36 1066.65 131.442C1059.93 136.188 1051.71 124.075 1040.39 136.021C1032.3 144.55 1034.47 154.275 1029.07 158.973C1027.06 160.725 1024.36 161.459 1021.77 160.196C1013.39 156.126 1014.81 140.359 1002.39 140.309C992.783 140.271 982.053 149.113 976.508 153.778C962.607 165.473 967.051 173.844 953.464 180.231C951.117 181.334 948.34 181.518 945.698 182.232C942.629 183.062 940.962 183.221 939.17 185.53C937.644 187.495 936.798 189.716 936.261 192.427C935.179 197.896 933.373 203.43 929.296 205.313C923.094 208.177 920.351 202.037 916.639 199.125C911.982 195.469 905.426 199.346 899.253 197.959C894.729 196.942 891.475 193.935 884.295 193.478C875.601 192.926 868.332 197.812 867.214 206.339C866.92 208.589 866.025 211.709 865.741 214.215C864.178 227.962 857.636 227.52 855.009 233.301C853.298 237.066 847.216 237.343 843.557 236.04C839.626 234.641 835.879 232.703 834.222 238.346C833.205 241.811 832.636 242.206 831.174 245.017C827.848 251.417 835.488 255.32 828.359 258.889C823.184 261.48 818.25 256.24 810.758 265.943C803.604 275.21 801.358 289.449 803.369 300.906C804.071 304.907 802.955 305.915 802.46 309.54C801.674 315.297 801.009 321.592 801 327.429C800.978 341.214 804.048 357.567 809.091 368.324C811.187 372.796 813.3 377.324 815.976 381.355C818.387 384.986 821.022 389.367 823.915 392.942C836.143 408.048 846.769 421.887 862.759 432.922C888.162 450.455 918.167 438.807 927.423 447.188C931.77 451.123 931.45 455.377 931.555 462.871C931.624 467.794 933.389 487.956 935.011 494.165C935.367 495.528 935.6 496.68 935.896 497.789C936.613 500.473 936.971 503.118 937.811 505.821C938.529 508.129 939.386 510.82 940.067 513.096C941.612 518.265 943.536 522.608 945.752 527.442C954.756 547.078 952.582 554.87 946.213 575.044C942.974 585.307 932.233 602.122 935.086 612.639C935.855 615.475 936.484 617.288 938.502 619.052C946.987 626.471 964.078 624.248 966.931 630.035C969.199 634.636 964.167 640.362 962.774 644.166C960.807 649.54 964.928 655.895 967.707 658.075C971.713 661.218 976.173 662.586 980.721 664.465C980.215 667.487 974.566 670.971 978.031 680.577C982.861 693.968 997.52 681.832 1003.99 690.857C1004.48 691.537 1005.36 693.629 1005.52 694.27C1006.22 697.174 1006.3 700.511 1007.13 703.405C1011.69 719.267 1027.9 719.609 1042.08 714.502C1055.59 709.641 1068.63 698.638 1080.14 690.087C1088.06 684.214 1095.71 677.694 1104.3 672.917C1109.38 670.098 1114.61 667.453 1117.95 673.188C1123.09 681.997 1127.27 697.422 1130.16 707.661C1136.07 728.648 1139.85 731.161 1126.91 751.046C1117.99 764.756 1101.58 785.04 1090.05 796.846C1075.17 812.087 1072.81 813.325 1056.56 825.46C1052.29 828.653 1048.86 831.192 1044.64 834.559C1032.67 844.113 1023.95 856.329 1018.33 870.284C1016.11 875.789 1008.77 897.979 1014.31 904.007C1016.44 906.324 1019.25 905.976 1023.1 905.988C1026.49 905.998 1029.88 905.979 1033.27 905.987C1040.18 906.001 1047.09 905.994 1053.99 905.985L1303.48 905.981C1317.3 905.959 1331.12 906.003 1344.93 905.982C1352.88 905.969 1356.2 905.48 1361.33 901.44C1368.76 895.585 1376.81 875.978 1378.31 866.09C1378.72 863.339 1379.04 860.36 1379.55 857.296C1381.21 847.262 1378.17 828.842 1375.69 820.222C1374.79 817.109 1374.32 814.868 1373.46 811.923C1368.29 794.158 1362.66 775.706 1353.56 759.816C1343.23 741.78 1336.03 734.152 1320.8 719.614C1316.88 715.873 1313.65 713.965 1309.62 710.105C1307.66 708.231 1306.16 707.283 1304.2 705.37C1296.94 698.255 1291 690.999 1286.56 681.716C1285.19 678.849 1281.79 667.915 1285.5 665.012C1286.62 665.478 1286.36 665.183 1287.02 666.448C1291.01 674.026 1294.26 681.835 1303 685.528C1312.92 689.72 1316.75 686.448 1325.27 683.036C1327.77 682.037 1329.96 681.458 1332.34 680.763C1349.54 675.756 1359.14 686.341 1363.64 678.054C1368.65 668.818 1354.97 655.817 1360.46 648.386C1362.82 645.186 1369.12 643.877 1373.37 642.206C1378.5 640.189 1382.22 638.13 1388.34 638.135C1394.7 638.141 1400.1 640.543 1405.34 639.827C1411.85 638.938 1414.19 642.28 1419.65 643.738C1425.64 645.339 1429.74 641.41 1431.69 637.574C1433.71 633.595 1434.97 626.296 1433.72 620.945C1433.32 619.226 1431.75 615.048 1433.04 613.229C1434.44 611.24 1436.07 610.235 1436.24 606.872C1436.34 605.07 1435.92 604.405 1437.06 603.214C1440.47 599.662 1446.46 599.293 1446.41 588.564C1446.36 578.354 1456.84 583.277 1461.03 575.31C1462.09 573.284 1462.42 570.69 1463.57 568.429C1466.74 562.175 1472.71 558.432 1475.9 552.741C1479.2 546.866 1476.45 541.58 1480.76 538.533C1484.68 535.761 1487.38 532.681 1489.13 528.113C1494.9 512.968 1487.69 511.782 1485.04 508.282C1481.87 504.083 1491.11 498.13 1479.94 487.286C1478.31 485.705 1475.95 484.563 1475.7 481.958C1475.42 479.021 1477.08 476.532 1477.27 473.793C1477.87 465.146 1473.9 453.834 1475.09 448.294C1475.6 445.874 1476.5 443.631 1477.49 441.386C1479.46 436.917 1481.24 432.296 1481.94 426.725C1482.94 418.671 1486.63 423.242 1483.15 412.918C1482.33 410.493 1481.02 408.252 1481.97 404.995C1482.51 403.104 1484.27 400.93 1485.53 399.247C1487.01 397.26 1488.3 395.647 1488.09 392.41C1487.9 389.362 1485.61 389.097 1485.69 385.42C1488.76 381.502 1495.74 383.319 1494.94 375.29C1494.42 370.107 1488.87 368.2 1485.34 365.58C1478.3 360.353 1481.41 350.692 1467.66 345.365C1462.99 343.557 1456.55 343.023 1458.93 335.427C1460.28 331.141 1463.97 326.336 1463.3 320.838C1461.95 309.729 1445.53 313.469 1440.83 305.552C1436.32 297.96 1446.88 285.173 1447.78 276.832C1448.2 273.024 1446.1 263.811 1445.16 260.431C1440.66 244.255 1430.61 249.342 1426.66 241.042C1424.5 236.512 1424.39 230.559 1423.01 225.647C1420.65 217.318 1412.49 209.663 1404.94 205.858C1399.75 203.247 1395.53 202.949 1389.51 201.944C1384.84 201.164 1382.43 196.012 1377.97 194.479C1367.11 190.743 1363.87 202.333 1356.67 197.394C1355.33 196.478 1352.75 194.01 1351.76 192.99C1333.59 174.343 1321.42 184.124 1316.66 170.755C1315.74 168.161 1315.46 165.814 1314.64 163.42C1309.22 147.586 1280.69 132.544 1263.52 128.973C1250.22 126.206 1240.81 131.532 1228.41 128.247L1220.33 126.403C1218.02 125.808 1215.6 125.484 1212.85 124.673C1208.35 123.351 1202.37 123.438 1199.81 118.829L1199.81 118.83Z" fill="#1D1534"/>
<defs>
<linearGradient id="paint0_linear_212_7" x1="-438.042" y1="-425.73" x2="1553.03" y2="1179.53" gradientUnits="userSpaceOnUse">
<stop offset="1" stop-color="#1D1534"/>
</linearGradient>
<linearGradient id="paint1_linear_212_7" x1="914.973" y1="-1071.42" x2="1201.11" y2="1646.88" gradientUnits="userSpaceOnUse">
<stop stop-color="#ED374D"/>
<stop offset="0.505208" stop-color="#FA793F"/>
<stop offset="1" stop-color="#F7F651"/>
</linearGradient>
</defs>
</svg>
