<svg width="430" height="361" viewBox="0 0 430 361" fill="none" xmlns="http://www.w3.org/2000/svg">
<path d="M39.4364 280.421C-6.12464 276.806 -15.8046 253.813 -14.9495 242.768L-14.9495 76L765.95 76V242.768C766.805 253.813 757.125 276.806 711.564 280.421C654.612 284.94 656.152 300.754 647.429 313.556C638.707 326.359 624.854 339.161 576.112 328.994C527.37 318.828 479.654 315.439 443.226 339.537C414.083 358.816 385.873 361 375.5 361C365.127 361 336.917 358.816 307.774 339.537C271.346 315.439 223.63 318.828 174.888 328.994C126.146 339.161 112.293 326.359 103.571 313.556C94.8483 300.754 96.3876 284.94 39.4364 280.421Z" fill="black"/>
<path d="M39.4364 280.421C-6.12464 276.806 -15.8046 253.813 -14.9495 242.768L-14.9495 76L765.95 76V242.768C766.805 253.813 757.125 276.806 711.564 280.421C654.612 284.94 656.152 300.754 647.429 313.556C638.707 326.359 624.854 339.161 576.112 328.994C527.37 318.828 479.654 315.439 443.226 339.537C414.083 358.816 385.873 361 375.5 361C365.127 361 336.917 358.816 307.774 339.537C271.346 315.439 223.63 318.828 174.888 328.994C126.146 339.161 112.293 326.359 103.571 313.556C94.8483 300.754 96.3876 284.94 39.4364 280.421Z" fill="url(#paint0_linear_209_6)"/>
<path d="M-115.131 200.201C-164.402 196.307 -174.87 171.539 -173.945 159.641V-20L670.545 -20L696.945 43.473C697.87 55.3707 687.401 80.1393 638.13 84.0331C576.541 88.9003 578.206 105.936 568.773 119.726C559.341 133.516 515.6 238.988 461.987 251.146C409.647 263.014 360.936 237.922 321.541 263.881C290.025 284.648 259.517 287 248.3 287C237.082 287 206.575 284.648 175.059 263.881C135.664 237.922 84.0624 241.573 31.3512 252.524C-21.3602 263.475 -36.3413 249.685 -45.7738 235.894C-55.2064 222.104 -53.5417 205.068 -115.131 200.201Z" fill="black"/>
<path d="M-115.131 200.201C-164.402 196.307 -174.87 171.539 -173.945 159.641V-20L670.545 -20L696.945 43.473C697.87 55.3707 687.401 80.1393 638.13 84.0331C576.541 88.9003 578.206 105.936 568.773 119.726C559.341 133.516 515.6 238.988 461.987 251.146C409.647 263.014 360.936 237.922 321.541 263.881C290.025 284.648 259.517 287 248.3 287C237.082 287 206.575 284.648 175.059 263.881C135.664 237.922 84.0624 241.573 31.3512 252.524C-21.3602 263.475 -36.3413 249.685 -45.7738 235.894C-55.2064 222.104 -53.5417 205.068 -115.131 200.201Z" fill="url(#paint1_linear_209_6)"/>
<path fill-rule="evenodd" clip-rule="evenodd" d="M288.655 159.249C288.653 154.022 290.254 147.528 294.622 146.171C296.088 145.715 297.703 146.286 298.554 146.944C300.386 148.363 301.294 151.27 301.39 153.622C301.425 154.492 301.63 154.873 301.498 155.841C301.399 156.57 301.423 157.226 301.374 158.007L301.077 160.052C300.541 162.163 300.341 163.403 299.471 165.581C297.158 171.37 292.199 174.367 289.819 168.269C288.737 165.496 288.656 162.612 288.655 159.249ZM173.087 111.427C173.141 111.088 173.211 111.117 173.274 110.72C173.452 109.6 173.73 108.633 174.017 107.561C175.532 101.907 179.801 94.2302 183.552 89.5658C187.213 85.014 190.415 81.2143 196.025 78.234C199.205 76.5447 204.501 74.83 208.662 76.5818C212.157 78.0528 212.298 79.7923 216.15 81.0811C221.149 82.7541 229.529 81.1938 233.975 80.2593C235.14 80.0144 236.224 79.8032 237.369 79.5673C241.789 78.657 250.36 75.6746 253.102 80.1425C255.344 83.7936 253.658 85.9921 262.056 94.8613C264.482 97.4226 267.151 99.9087 270.523 102.271C271.415 102.895 272.178 103.383 272.954 103.872C275.492 105.47 278.722 106.94 281.877 106.942C285.289 106.945 285.812 106.145 288.151 105.165C289.296 104.686 290.544 104.738 291.293 105.506C293.429 107.698 291.837 112.984 291.148 115.034C289.405 120.215 288.18 121.477 286.138 125.734C285.028 128.048 284.684 128.598 283.686 131.149C282.431 134.355 281.128 141.481 281.571 144.575C281.662 145.205 281.675 145.803 281.691 146.533L282.383 151.588C282.41 152.228 282.345 152.907 282.467 153.507C282.959 155.91 282.115 161.258 281.514 163.998C280.943 166.595 280.554 167.706 279.805 170.118L278.219 174.42C277.79 175.404 277.528 176.279 277.092 177.175C274.671 182.151 274.653 182.553 271.546 187.361C270.378 189.17 269.298 190.307 268.075 191.816C266.23 194.095 262.916 196.556 259.887 197.592C259.41 197.755 258.882 197.863 258.33 198.008C255.947 198.633 253.182 197.818 251.736 196.754C249.087 194.805 246.611 190.578 244.996 187.709C243.135 184.405 241.173 180.783 239.575 177.373C239.125 176.415 238.755 175.546 238.355 174.603C237.347 172.226 237.047 171.206 236.386 168.738C235.559 165.651 235.904 161.911 234.742 158.713C233.693 155.825 232.152 153.568 230.477 151.085C229.951 150.306 229.39 149.485 228.866 148.806C226.679 145.973 224.288 142.987 221.498 140.353C218.486 137.51 215.35 134.948 210.734 135.101C207.655 135.204 205.494 136.777 203.087 137.579C201.399 138.142 200.51 138.574 198.5 138.902C187.636 140.677 177.226 134.03 173.988 124.43C172.721 120.676 173.203 120.806 172.739 117.864C172.576 116.832 172.881 112.71 173.086 111.427L173.087 111.427ZM230.529 59.2654C226.517 56.2629 222.819 56.2269 219.448 59.2654L216.549 62.2645C215.077 63.8427 213.447 65.0349 211.459 65.9321C210.974 66.151 209.839 66.5444 209.219 66.6024C203.769 67.112 203.701 63.3466 202.49 61.6733C200.462 58.8728 196.792 59.0772 193.878 60.4006C191.951 61.2757 191.927 62.0225 190.619 62.9141C188.605 64.2871 186.14 60.7827 182.747 64.2387C180.324 66.7063 180.974 69.5198 179.355 70.8791C178.752 71.3858 177.944 71.5982 177.166 71.2328C174.657 70.0552 175.08 65.4939 171.36 65.4794C168.48 65.4683 165.264 68.0265 163.602 69.3759C159.435 72.7594 160.768 75.1813 156.695 77.0291C155.992 77.3482 155.16 77.4014 154.368 77.6081C153.448 77.8482 152.948 77.8941 152.411 78.562C151.954 79.1305 151.7 79.7733 151.539 80.5575C151.215 82.1397 150.674 83.7409 149.452 84.2855C147.593 85.114 146.771 83.3378 145.658 82.4952C144.263 81.4377 142.298 82.5592 140.447 82.1579C139.092 81.8636 138.117 80.9936 135.965 80.8615C133.359 80.7019 131.18 82.1155 130.845 84.5825C130.757 85.2334 130.489 86.136 130.404 86.861C129.935 90.8379 127.974 90.7101 127.187 92.3827C126.674 93.4719 124.852 93.5522 123.755 93.1752C122.577 92.7703 121.454 92.2098 120.957 93.8423C120.652 94.8446 120.482 94.959 120.044 95.7724C119.047 97.6237 121.336 98.753 119.2 99.7855C117.649 100.535 116.17 99.0191 113.925 101.826C111.78 104.507 111.107 108.627 111.71 111.941C111.921 113.099 111.586 113.39 111.438 114.439C111.202 116.105 111.003 117.926 111 119.615C110.993 123.603 111.913 128.334 113.425 131.446C114.053 132.74 114.687 134.05 115.489 135.216C116.211 136.266 117.001 137.534 117.868 138.568C121.533 142.938 124.718 146.942 129.51 150.135C137.124 155.207 146.116 151.837 148.891 154.262C150.193 155.4 150.097 156.631 150.129 158.799C150.15 160.223 150.679 166.057 151.165 167.853C151.271 168.247 151.341 168.58 151.43 168.901C151.645 169.678 151.752 170.443 152.004 171.225C152.219 171.893 152.476 172.671 152.68 173.33C153.143 174.825 153.72 176.082 154.384 177.48C157.082 183.161 156.431 185.415 154.522 191.252C153.551 194.221 150.332 199.086 151.187 202.128C151.418 202.949 151.606 203.473 152.211 203.984C154.754 206.13 159.876 205.487 160.731 207.161C161.411 208.492 159.903 210.149 159.486 211.249C158.896 212.804 160.131 214.642 160.964 215.273C162.165 216.182 163.502 216.578 164.864 217.122C164.713 217.996 163.02 219.004 164.058 221.783C165.506 225.657 169.899 222.146 171.84 224.757C171.986 224.954 172.249 225.559 172.296 225.745C172.508 226.585 172.531 227.55 172.78 228.388C174.146 232.977 179.004 233.076 183.255 231.598C187.303 230.192 191.211 227.008 194.663 224.535C197.034 222.836 199.328 220.949 201.904 219.567C203.424 218.752 204.992 217.986 205.994 219.646C207.534 222.194 208.788 226.657 209.652 229.619C211.424 235.691 212.557 236.418 208.679 242.171C206.006 246.137 201.087 252.005 197.632 255.421C193.172 259.83 192.465 260.188 187.595 263.699C186.313 264.623 185.287 265.358 184.023 266.331C180.434 269.096 177.821 272.63 176.135 276.667C175.471 278.26 173.272 284.679 174.932 286.423C175.57 287.094 176.412 286.993 177.566 286.996C178.582 286.999 179.598 286.994 180.614 286.996C182.684 287 184.755 286.998 186.825 286.996L261.6 286.995C265.741 286.988 269.883 287.001 274.024 286.995C276.406 286.991 277.401 286.85 278.937 285.681C281.163 283.987 283.576 278.314 284.025 275.454C284.15 274.658 284.247 273.796 284.398 272.91C284.896 270.007 283.983 264.678 283.24 262.184C282.972 261.283 282.83 260.635 282.573 259.783C281.024 254.643 279.335 249.305 276.607 244.708C273.512 239.49 271.354 237.283 266.791 233.077C265.616 231.995 264.647 231.443 263.439 230.326C262.853 229.784 262.401 229.509 261.816 228.956C259.64 226.898 257.857 224.798 256.528 222.113C256.117 221.283 255.097 218.12 256.209 217.28C256.545 217.415 256.468 217.33 256.667 217.696C257.861 219.888 258.837 222.147 261.456 223.216C264.43 224.428 265.576 223.482 268.131 222.495C268.879 222.206 269.534 222.038 270.25 221.837C275.403 220.389 278.282 223.451 279.629 221.053C281.13 218.381 277.03 214.62 278.676 212.47C279.385 211.544 281.272 211.166 282.546 210.682C284.084 210.099 285.198 209.503 287.033 209.505C288.94 209.506 290.557 210.201 292.128 209.994C294.078 209.737 294.781 210.704 296.417 211.126C298.213 211.589 299.442 210.452 300.025 209.342C300.631 208.191 301.007 206.079 300.634 204.531C300.513 204.034 300.044 202.825 300.43 202.299C300.85 201.724 301.337 201.433 301.39 200.46C301.418 199.938 301.294 199.746 301.636 199.402C302.656 198.374 304.452 198.267 304.436 195.163C304.421 192.209 307.562 193.633 308.817 191.329C309.136 190.743 309.236 189.992 309.58 189.338C310.53 187.529 312.321 186.446 313.277 184.799C314.264 183.1 313.441 181.57 314.733 180.689C315.907 179.887 316.717 178.996 317.239 177.674C318.97 173.293 316.808 172.95 316.016 171.937C315.066 170.722 317.834 169 314.485 165.862C313.997 165.405 313.291 165.075 313.216 164.321C313.132 163.471 313.629 162.751 313.686 161.959C313.867 159.457 312.677 156.185 313.031 154.582C313.186 153.882 313.456 153.233 313.752 152.583C314.342 151.291 314.877 149.953 315.085 148.342C315.385 146.012 316.492 147.334 315.447 144.347C315.201 143.646 314.811 142.998 315.094 142.055C315.257 141.508 315.785 140.879 316.162 140.392C316.607 139.817 316.991 139.351 316.93 138.414C316.872 137.533 316.185 137.456 316.21 136.392C317.129 135.259 319.221 135.784 318.981 133.461C318.826 131.962 317.161 131.41 316.105 130.652C313.995 129.14 314.926 126.345 310.806 124.804C309.408 124.281 307.475 124.126 308.191 121.928C308.594 120.689 309.699 119.299 309.499 117.708C309.093 114.494 304.174 115.576 302.765 113.286C301.414 111.089 304.578 107.39 304.849 104.977C304.973 103.875 304.345 101.209 304.063 100.232C302.713 95.5517 299.702 97.0234 298.518 94.6221C297.872 93.3118 297.839 91.5895 297.423 90.1683C296.718 87.7588 294.272 85.5439 292.007 84.4432C290.452 83.6878 289.189 83.6016 287.383 83.3108C285.983 83.0852 285.261 81.5946 283.925 81.1512C280.669 80.0703 279.698 83.4233 277.54 81.9946C277.139 81.7296 276.366 81.0155 276.069 80.7204C270.625 75.3256 266.975 78.1554 265.55 74.2877C265.273 73.5371 265.188 72.8582 264.943 72.1654C263.319 67.5847 254.769 63.233 249.624 62.1999C245.637 61.3994 242.815 62.94 239.099 61.9897L236.679 61.4561C235.986 61.284 235.261 61.1903 234.435 60.9558C233.088 60.5734 231.295 60.5984 230.528 59.2651L230.529 59.2654Z" fill="#1D1534"/>
<defs>
<linearGradient id="paint0_linear_209_6" x1="-283.246" y1="332.825" x2="601.21" y2="245.675" gradientUnits="userSpaceOnUse">
<stop offset="1" stop-color="#1D1534"/>
</linearGradient>
<linearGradient id="paint1_linear_209_6" x1="-174" y1="-4.24503" x2="648.641" y2="495.947" gradientUnits="userSpaceOnUse">
<stop stop-color="#ED374D"/>
<stop offset="0.505208" stop-color="#FA793F"/>
<stop offset="1" stop-color="#F7F651"/>
</linearGradient>
</defs>
</svg>
