<svg width="430" height="1692" viewBox="0 0 430 1692" fill="none" xmlns="http://www.w3.org/2000/svg">
<rect y="1148" width="430" height="556" fill="#1D1534"/>
<path d="M533.696 100.653C589.19 105.168 600.98 133.89 599.939 147.687V356L-351.204 356L-380.938 282.396C-381.98 268.599 -370.189 239.878 -314.695 235.362C-245.328 229.718 -247.203 209.964 -236.579 193.972C-225.955 177.981 -176.691 55.6752 -116.307 41.5772C-57.3572 27.8143 -2.49335 56.9111 41.8766 26.8094C77.3726 2.72794 111.733 0 124.367 0C137.001 0 171.362 2.72794 206.858 26.8094C251.228 56.9111 309.346 52.6781 368.715 39.9789C428.083 27.2797 444.956 43.2713 455.58 59.2628C466.204 75.2544 464.329 95.0087 533.696 100.653Z" fill="black"/>
<path d="M533.696 100.653C589.19 105.168 600.98 133.89 599.939 147.687V356L-351.204 356L-380.938 282.396C-381.98 268.599 -370.189 239.878 -314.695 235.362C-245.328 229.718 -247.203 209.964 -236.579 193.972C-225.955 177.981 -176.691 55.6752 -116.307 41.5772C-57.3572 27.8143 -2.49335 56.9111 41.8766 26.8094C77.3726 2.72794 111.733 0 124.367 0C137.001 0 171.362 2.72794 206.858 26.8094C251.228 56.9111 309.346 52.6781 368.715 39.9789C428.083 27.2797 444.956 43.2713 455.58 59.2628C466.204 75.2544 464.329 95.0087 533.696 100.653Z" fill="url(#paint0_linear_10_7)"/>
<path d="M721.111 1073.74C787.975 1058.43 802.181 961.052 800.926 914.275V208L-345.099 208L-380.926 457.55C-382.181 504.327 -367.974 601.707 -301.11 617.016C-217.53 636.152 -219.789 703.128 -206.988 757.346C-194.188 811.565 -134.83 1226.24 -62.0728 1274.03C8.95496 1320.7 75.0599 1222.05 128.521 1324.1C171.29 1405.75 212.691 1415 227.913 1415C243.136 1415 284.537 1405.75 327.306 1324.1C380.767 1222.05 450.794 1236.4 522.326 1279.45C593.858 1322.51 614.189 1268.29 626.989 1214.07C639.79 1159.85 637.531 1092.88 721.111 1073.74Z" fill="black"/>
<path d="M721.111 1073.74C787.975 1058.43 802.181 961.052 800.926 914.275V208L-345.099 208L-380.926 457.55C-382.181 504.327 -367.974 601.707 -301.11 617.016C-217.53 636.152 -219.789 703.128 -206.988 757.346C-194.188 811.565 -134.83 1226.24 -62.0728 1274.03C8.95496 1320.7 75.0599 1222.05 128.521 1324.1C171.29 1405.75 212.691 1415 227.913 1415C243.136 1415 284.537 1405.75 327.306 1324.1C380.767 1222.05 450.794 1236.4 522.326 1279.45C593.858 1322.51 614.189 1268.29 626.989 1214.07C639.79 1159.85 637.531 1092.88 721.111 1073.74Z" fill="url(#paint1_linear_10_7)"/>
<defs>
<linearGradient id="paint0_linear_10_7" x1="600" y1="337.73" x2="-340.917" y2="-217.94" gradientUnits="userSpaceOnUse">
<stop stop-color="#ED374D"/>
<stop offset="0.505208" stop-color="#FA793F"/>
<stop offset="1" stop-color="#F7F651"/>
</linearGradient>
<linearGradient id="paint1_linear_10_7" x1="801" y1="269.942" x2="-663.59" y2="577.321" gradientUnits="userSpaceOnUse">
<stop stop-color="#ED374D"/>
<stop offset="0.505208" stop-color="#FA793F"/>
<stop offset="1" stop-color="#F7F651"/>
</linearGradient>
</defs>
</svg>
