<svg width="24" height="24" viewBox="0 0 24 24" fill="none" xmlns="http://www.w3.org/2000/svg">
<path d="M3.99965 21.0001C4.07936 21.0098 4.15994 21.0098 4.23965 21.0001L8.23965 20.0001C8.41709 19.958 8.57962 19.8681 8.70965 19.7401L20.9996 7.41015C21.3721 7.03542 21.5812 6.52852 21.5812 6.00015C21.5812 5.47178 21.3721 4.96487 20.9996 4.59015L19.4196 3.00015C19.2339 2.81419 19.0133 2.66668 18.7705 2.56603C18.5277 2.46538 18.2675 2.41357 18.0046 2.41357C17.7418 2.41357 17.4816 2.46538 17.2388 2.56603C16.996 2.66668 16.7754 2.81419 16.5896 3.00015L4.29965 15.2901C4.17044 15.4208 4.07739 15.5827 4.02965 15.7601L3.02965 19.7601C2.9937 19.8895 2.98419 20.0248 3.00168 20.158C3.01916 20.2911 3.06328 20.4194 3.13141 20.5351C3.19954 20.6508 3.29028 20.7517 3.39821 20.8316C3.50615 20.9114 3.62907 20.9688 3.75965 21.0001C3.83936 21.0098 3.91994 21.0098 3.99965 21.0001ZM17.9996 4.41015L19.5896 6.00015L17.9996 7.59015L16.4196 6.00015L17.9996 4.41015ZM5.90965 16.5101L14.9996 7.41015L16.5896 9.00015L7.48965 18.1001L5.37965 18.6201L5.90965 16.5101Z" fill="black"/>
</svg>
