<svg width="29" height="28" viewBox="0 0 29 28" fill="none" xmlns="http://www.w3.org/2000/svg">
<g clip-path="url(#clip0_436_327)">
<path d="M3.56641 11.3516C3.56641 16.5078 7.76172 20.7031 12.918 20.7031C14.957 20.7031 16.8203 20.0469 18.3555 18.9453L24.1211 24.7227C24.3906 24.9922 24.7422 25.1211 25.1172 25.1211C25.9141 25.1211 26.4648 24.5234 26.4648 23.7383C26.4648 23.3633 26.3242 23.0234 26.0781 22.7773L20.3476 17.0117C21.5547 15.4414 22.2695 13.4844 22.2695 11.3516C22.2695 6.19531 18.0742 2 12.918 2C7.76172 2 3.56641 6.19531 3.56641 11.3516ZM5.57032 11.3516C5.57032 7.29688 8.86329 4.00391 12.918 4.00391C16.9726 4.00391 20.2656 7.29688 20.2656 11.3516C20.2656 15.4062 16.9726 18.6992 12.918 18.6992C8.86329 18.6992 5.57032 15.4062 5.57032 11.3516Z" fill="#3A3A3A"/>
</g>
<defs>
<clipPath id="clip0_436_327">
<rect width="22.8984" height="23.1211" fill="white" transform="translate(3.56641 2)"/>
</clipPath>
</defs>
</svg>
