<svg width="28" height="28" viewBox="0 0 28 28" fill="none" xmlns="http://www.w3.org/2000/svg">
<g clip-path="url(#clip0_436_336)">
<path d="M2.79688 16.7656H13.2734C13.7188 16.7656 14.0703 16.4141 14.0703 15.9688C14.0703 15.5352 13.707 15.1836 13.2734 15.1836H2.79688C2.35156 15.1836 2 15.5352 2 15.9688C2 16.4141 2.33984 16.7656 2.79688 16.7656Z" fill="#3A3A3A"/>
<path d="M2.79688 12.5938H13.2734C13.7188 12.5938 14.0703 12.2305 14.0703 11.7852C14.0703 11.3516 13.707 11.0117 13.2734 11.0117H2.79688C2.35156 11.0117 2 11.3516 2 11.7852C2 12.2305 2.33984 12.5938 2.79688 12.5938Z" fill="#3A3A3A"/>
<path d="M2.79688 8.42188H13.2734C13.707 8.42188 14.0703 8.05859 14.0703 7.625C14.0703 7.19141 13.707 6.83984 13.2734 6.83984H2.79688C2.35156 6.83984 2 7.19141 2 7.625C2 8.05859 2.35156 8.42188 2.79688 8.42188Z" fill="#3A3A3A"/>
<path d="M25.8945 7.87101V3.46476C25.8945 2.84367 25.3906 2.44523 24.793 2.56242L18.7695 3.87492C18.0195 4.03898 17.6094 4.44914 17.6094 5.10539L17.6328 18.1366C17.6914 18.7108 17.4219 19.0858 16.9062 19.1913L15.043 19.578C12.6992 20.0702 11.5977 21.2655 11.5977 23.0351C11.5977 24.828 12.9805 26.0819 14.9258 26.0819C16.6484 26.0819 19.2266 24.8163 19.2266 21.4061V10.6835C19.2266 10.0624 19.3438 9.93351 19.8945 9.81633L25.25 8.64445C25.6484 8.56242 25.8945 8.25773 25.8945 7.87101Z" fill="#3A3A3A"/>
</g>
<defs>
<clipPath id="clip0_436_336">
<rect width="23.8945" height="24.082" fill="white" transform="translate(2 2)"/>
</clipPath>
</defs>
</svg>
