<svg width="24" height="24" viewBox="0 0 24 24" fill="none" xmlns="http://www.w3.org/2000/svg">
<g clip-path="url(#clip0_400_98)">
<path d="M8.38795 3.69578L21.6119 1.29579C22.2719 1.19979 22.7999 1.83578 22.7999 2.49578V17.3998C22.7999 19.7278 20.916 21.5998 18.6 21.5998C16.284 21.5998 14.4 19.7278 14.4 17.3998C14.4 15.0838 16.284 13.1998 18.6 13.1998C19.2479 13.1998 19.8479 13.3678 20.4 13.6198V6.09579L9.59995 8.49578V19.1998C9.31195 21.2398 7.51195 22.7998 5.39995 22.7998C3.08395 22.7998 1.19995 20.9278 1.19995 18.5998C1.19995 16.2838 3.08395 14.3998 5.39995 14.3998C6.04795 14.3998 6.64795 14.5678 7.19995 14.8198V4.89578C7.19995 4.23578 7.72795 3.80378 8.38795 3.69578Z" fill="#3A3A3A"/>
</g>
<defs>
<clipPath id="clip0_400_98">
<rect width="24" height="24" fill="white"/>
</clipPath>
</defs>
</svg>
