<svg width="28" height="28" viewBox="0 0 28 28" fill="none" xmlns="http://www.w3.org/2000/svg">
<path d="M15.1667 23.3335H7C6.69058 23.3335 6.39383 23.2106 6.17504 22.9918C5.95625 22.773 5.83333 22.4762 5.83333 22.1668V5.8335C5.83333 5.52408 5.95625 5.22733 6.17504 5.00854C6.39383 4.78975 6.69058 4.66683 7 4.66683H12.8333V8.16683C12.8333 9.09509 13.2021 9.98533 13.8585 10.6417C14.5148 11.2981 15.4051 11.6668 16.3333 11.6668H19.8333V14.0002C19.8333 14.3096 19.9562 14.6063 20.175 14.8251C20.3938 15.0439 20.6906 15.1668 21 15.1668C21.3094 15.1668 21.6062 15.0439 21.825 14.8251C22.0438 14.6063 22.1667 14.3096 22.1667 14.0002V10.5002C22.1667 10.5002 22.1667 10.5002 22.1667 10.4302C22.1545 10.323 22.1311 10.2174 22.0967 10.1152V10.0102C22.0406 9.89021 21.9657 9.77994 21.875 9.6835L14.875 2.6835C14.7786 2.59275 14.6683 2.51792 14.5483 2.46183C14.5135 2.45688 14.4782 2.45688 14.4433 2.46183C14.3248 2.39386 14.1939 2.35023 14.0583 2.3335H7C6.07174 2.3335 5.1815 2.70225 4.52513 3.35862C3.86875 4.015 3.5 4.90524 3.5 5.8335V22.1668C3.5 23.0951 3.86875 23.9853 4.52513 24.6417C5.1815 25.2981 6.07174 25.6668 7 25.6668H15.1667C15.4761 25.6668 15.7728 25.5439 15.9916 25.3251C16.2104 25.1063 16.3333 24.8096 16.3333 24.5002C16.3333 24.1907 16.2104 23.894 15.9916 23.6752C15.7728 23.4564 15.4761 23.3335 15.1667 23.3335ZM15.1667 6.31183L18.1883 9.3335H16.3333C16.0239 9.3335 15.7272 9.21058 15.5084 8.99179C15.2896 8.77299 15.1667 8.47625 15.1667 8.16683V6.31183ZM9.33333 9.3335C9.02391 9.3335 8.72717 9.45641 8.50838 9.67521C8.28958 9.894 8.16667 10.1907 8.16667 10.5002C8.16667 10.8096 8.28958 11.1063 8.50838 11.3251C8.72717 11.5439 9.02391 11.6668 9.33333 11.6668H10.5C10.8094 11.6668 11.1062 11.5439 11.325 11.3251C11.5438 11.1063 11.6667 10.8096 11.6667 10.5002C11.6667 10.1907 11.5438 9.894 11.325 9.67521C11.1062 9.45641 10.8094 9.3335 10.5 9.3335H9.33333ZM16.3333 14.0002H9.33333C9.02391 14.0002 8.72717 14.1231 8.50838 14.3419C8.28958 14.5607 8.16667 14.8574 8.16667 15.1668C8.16667 15.4762 8.28958 15.773 8.50838 15.9918C8.72717 16.2106 9.02391 16.3335 9.33333 16.3335H16.3333C16.6428 16.3335 16.9395 16.2106 17.1583 15.9918C17.3771 15.773 17.5 15.4762 17.5 15.1668C17.5 14.8574 17.3771 14.5607 17.1583 14.3419C16.9395 14.1231 16.6428 14.0002 16.3333 14.0002ZM24.1617 20.1718L21.8283 17.8385C21.7174 17.7323 21.5865 17.649 21.4433 17.5935C21.1593 17.4768 20.8407 17.4768 20.5567 17.5935C20.4135 17.649 20.2826 17.7323 20.1717 17.8385L17.8383 20.1718C17.6186 20.3915 17.4952 20.6895 17.4952 21.0002C17.4952 21.3109 17.6186 21.6088 17.8383 21.8285C18.058 22.0482 18.356 22.1716 18.6667 22.1716C18.9774 22.1716 19.2753 22.0482 19.495 21.8285L19.8333 21.4785V24.5002C19.8333 24.8096 19.9562 25.1063 20.175 25.3251C20.3938 25.5439 20.6906 25.6668 21 25.6668C21.3094 25.6668 21.6062 25.5439 21.825 25.3251C22.0438 25.1063 22.1667 24.8096 22.1667 24.5002V21.4785L22.505 21.8285C22.6135 21.9378 22.7425 22.0246 22.8847 22.0839C23.0268 22.1431 23.1793 22.1736 23.3333 22.1736C23.4873 22.1736 23.6398 22.1431 23.782 22.0839C23.9242 22.0246 24.0532 21.9378 24.1617 21.8285C24.271 21.72 24.3578 21.591 24.417 21.4488C24.4763 21.3067 24.5068 21.1542 24.5068 21.0002C24.5068 20.8461 24.4763 20.6937 24.417 20.5515C24.3578 20.4093 24.271 20.2803 24.1617 20.1718ZM14 21.0002C14.3094 21.0002 14.6062 20.8772 14.825 20.6585C15.0438 20.4397 15.1667 20.1429 15.1667 19.8335C15.1667 19.5241 15.0438 19.2273 14.825 19.0085C14.6062 18.7897 14.3094 18.6668 14 18.6668H9.33333C9.02391 18.6668 8.72717 18.7897 8.50838 19.0085C8.28958 19.2273 8.16667 19.5241 8.16667 19.8335C8.16667 20.1429 8.28958 20.4397 8.50838 20.6585C8.72717 20.8772 9.02391 21.0002 9.33333 21.0002H14Z" fill="#3A3A3A"/>
</svg>
