<svg width="40" height="34" viewBox="0 0 40 34" fill="none" xmlns="http://www.w3.org/2000/svg">
<path d="M8.60156 16.4883C10.7812 16.4883 12.6797 14.5195 12.6797 11.9766C12.6797 9.44531 10.7695 7.59375 8.60156 7.59375C6.42188 7.59375 4.51172 9.49219 4.51172 12C4.51172 14.5195 6.41016 16.4883 8.60156 16.4883ZM2.0625 27.0703H15.1172C16.6055 27.0703 17.1797 26.4844 17.1797 25.418C17.1797 22.1836 13.875 18.2812 8.58984 18.2812C3.30469 18.2812 0 22.1836 0 25.418C0 26.4844 0.585938 27.0703 2.0625 27.0703Z" fill="#3A3A3A"/>
<path d="M14.7188 28.6641H29.4492C32.5312 28.6641 33.5391 27.1758 33.5391 25.5117C33.5391 21.5742 29.0273 16.7227 22.0781 16.7227C15.1406 16.7227 10.6289 21.5742 10.6289 25.5117C10.6289 27.1758 11.6367 28.6641 14.7188 28.6641Z" fill="white"/>
<path d="M22.0898 16.2188C24.6094 16.2188 26.7773 13.9688 26.7773 11.0391C26.7773 8.14453 24.5977 6 22.0898 6C19.582 6 17.4023 8.19141 17.4023 11.0625C17.4023 13.9688 19.5703 16.2188 22.0898 16.2188ZM14.7188 27.0703H29.4492C31.2891 27.0703 31.9453 26.543 31.9453 25.5117C31.9453 22.4883 28.1602 18.3164 22.0781 18.3164C16.0078 18.3164 12.2227 22.4883 12.2227 25.5117C12.2227 26.543 12.8789 27.0703 14.7188 27.0703Z" fill="#3A3A3A"/>
<path d="M32.0625 33.082C36.1875 33.082 39.6211 29.6602 39.6211 25.5352C39.6211 21.3867 36.2109 17.9766 32.0625 17.9766C27.9258 17.9766 24.5156 21.3867 24.5156 25.5352C24.5156 29.6953 27.9141 33.082 32.0625 33.082Z" fill="white"/>
<path d="M31.5586 31.5938H32.5664C32.9297 31.5938 33.2109 31.3828 33.293 31.0078L33.5742 29.8594C33.7383 29.8125 33.9258 29.7305 34.0898 29.6484L35.0977 30.2578C35.4023 30.457 35.7422 30.457 36.0234 30.1758L36.7148 29.4727C36.9609 29.2148 36.9844 28.875 36.7852 28.5352L36.1875 27.5273C36.2812 27.3633 36.3281 27.2109 36.3867 27.0469L37.5469 26.7773C37.9102 26.6836 38.1445 26.4023 38.1445 26.0391V25.043C38.1445 24.6914 37.8984 24.4336 37.5469 24.3398L36.4102 24.0586C36.3281 23.8594 36.2578 23.7188 36.1992 23.5781L36.832 22.5352C37.0195 22.2305 36.9844 21.8555 36.7383 21.6211L36.0234 20.9297C35.7539 20.6602 35.4023 20.6133 35.1094 20.8008L34.0898 21.4453C33.8906 21.3398 33.7383 21.293 33.5742 21.2344L33.293 20.0625C33.2109 19.7109 32.9297 19.4766 32.5664 19.4766H31.5586C31.1953 19.4766 30.9023 19.7227 30.8203 20.0625L30.5625 21.2227C30.3516 21.293 30.1992 21.3398 30.0234 21.4453L29.0039 20.8008C28.7344 20.625 28.3594 20.6602 28.1016 20.9297L27.4102 21.6211C27.1641 21.8672 27.082 22.2305 27.2812 22.5352L27.9258 23.5781C27.8672 23.7188 27.7969 23.8828 27.7148 24.0586L26.5781 24.3398C26.2266 24.4336 25.9922 24.7031 25.9922 25.043V26.0391C25.9922 26.4023 26.2266 26.6836 26.5781 26.7773L27.7266 27.0469C27.8086 27.2109 27.8672 27.3633 27.9375 27.5273L27.3398 28.5469C27.1406 28.875 27.1758 29.2266 27.4219 29.4727L28.1016 30.1758C28.3594 30.457 28.7109 30.457 29.0273 30.2578L30.0469 29.6484C30.2461 29.7539 30.3984 29.8125 30.5625 29.8594L30.8203 31.0078C30.9023 31.3594 31.1953 31.5938 31.5586 31.5938ZM32.0625 27.4922C30.9727 27.4922 30.1172 26.625 30.1172 25.5469C30.1172 24.4805 30.9727 23.5898 32.0625 23.5781C33.1172 23.5664 34.0195 24.4805 34.0195 25.5469C34.0195 26.625 33.1172 27.4922 32.0625 27.4922Z" fill="#3A3A3A"/>
</svg>
