<svg width="132" height="150" viewBox="0 0 132 150" fill="none" xmlns="http://www.w3.org/2000/svg">
<path fill-rule="evenodd" clip-rule="evenodd" d="M112.743 66.6839C112.741 63.2752 113.757 59.0399 116.529 58.155C117.46 57.8579 118.485 58.2301 119.024 58.6593C120.187 59.5847 120.764 61.4807 120.824 63.0141C120.846 63.5818 120.977 63.8301 120.893 64.4618C120.83 64.9368 120.845 65.3646 120.814 65.8745L120.626 67.2079C120.285 68.5848 120.158 69.3933 119.606 70.8137C118.139 74.5892 114.991 76.5438 113.481 72.5666C112.794 70.7581 112.743 68.8771 112.743 66.6839ZM39.4011 35.496C39.4356 35.275 39.4799 35.2939 39.5199 35.035C39.6327 34.304 39.8095 33.6734 39.9916 32.9747C40.9529 29.2869 43.6623 24.2805 46.0428 21.2386C48.3659 18.27 50.3978 15.7919 53.9582 13.8482C55.9764 12.7465 59.3374 11.6282 61.9781 12.7708C64.1955 13.7301 64.2851 14.8645 66.7296 15.7051C69.9023 16.7962 75.2204 15.7785 78.0421 15.1691C78.7813 15.0094 79.4688 14.8717 80.1958 14.7178C83.0007 14.1241 88.4397 12.1791 90.1804 15.0929C91.6028 17.4741 90.5327 18.9079 95.8626 24.6921C97.4018 26.3626 99.0959 27.9839 101.236 29.5243C101.802 29.9318 102.286 30.2499 102.778 30.5685C104.389 31.6107 106.439 32.5697 108.441 32.5712C110.607 32.5727 110.939 32.0509 112.423 31.4121C113.149 31.0995 113.942 31.1332 114.417 31.6346C115.772 33.0637 114.762 36.5115 114.325 37.8482C113.218 41.227 112.441 42.05 111.145 44.8269C110.441 46.3359 110.223 46.6942 109.589 48.3582C108.793 50.4489 107.966 55.096 108.247 57.1142C108.304 57.5249 108.313 57.9152 108.323 58.3912L108.762 61.6876C108.78 62.1053 108.738 62.5483 108.816 62.9395C109.128 64.5066 108.592 67.9944 108.211 69.7811C107.848 71.4753 107.602 72.1995 107.126 73.7729L106.12 76.5781C105.847 77.2197 105.681 77.7908 105.404 78.3753C103.868 81.6204 103.857 81.8823 101.885 85.0182C101.144 86.1975 100.458 86.9394 99.6823 87.9238C98.5111 89.4098 96.4085 91.0149 94.4857 91.6906C94.1835 91.7968 93.8485 91.8669 93.4977 91.9615C91.9857 92.3695 90.2306 91.8377 89.3131 91.144C87.632 89.8728 86.0607 87.1158 85.0358 85.2452C83.855 83.09 82.61 80.7281 81.5956 78.5044C81.3104 77.8791 81.0752 77.3127 80.8215 76.6979C80.1816 75.1471 79.9914 74.4822 79.5719 72.8723C79.0473 70.8592 79.2657 68.4204 78.5284 66.3343C77.8629 64.4512 76.8852 62.9789 75.8221 61.36C75.4882 60.8516 75.1323 60.3165 74.7995 59.8734C73.4117 58.0261 71.8942 56.0785 70.1236 54.3609C68.2122 52.5067 66.2224 50.8357 63.2929 50.9357C61.3388 51.0025 59.9676 52.0288 58.4395 52.5518C57.3684 52.9185 56.8043 53.2003 55.529 53.4145C48.6345 54.5722 42.028 50.2369 39.9729 43.9762C39.1693 41.528 39.4748 41.6129 39.1802 39.6937C39.0769 39.0208 39.2703 36.3323 39.4007 35.4958L39.4011 35.496ZM75.8549 1.47743C73.3086 -0.480717 70.9621 -0.504202 68.8229 1.47743L66.9829 3.4334C66.0487 4.46266 65.0145 5.24014 63.7528 5.82528C63.4451 5.96806 62.7247 6.22462 62.331 6.26244C58.8725 6.59476 58.8297 4.13907 58.0608 3.04777C56.7741 1.22139 54.445 1.35471 52.5956 2.21781C51.373 2.78851 51.3577 3.27555 50.5277 3.85705C49.2494 4.75248 47.685 2.467 45.5315 4.72089C43.9939 6.33019 44.4063 8.1651 43.3792 9.05159C42.9963 9.38203 42.4838 9.52055 41.99 9.28228C40.3976 8.51425 40.6663 5.53952 38.3056 5.53006C36.4774 5.52279 34.4365 7.19122 33.382 8.07127C30.7379 10.2779 31.5833 11.8574 28.9989 13.0624C28.5526 13.2706 28.0243 13.3053 27.5218 13.4401C26.9381 13.5967 26.6211 13.6266 26.2801 14.0622C25.99 14.433 25.829 14.8521 25.7269 15.3636C25.521 16.3955 25.1775 17.4397 24.4021 17.7949C23.2224 18.3352 22.7008 17.1768 21.9948 16.6273C21.109 15.9376 19.862 16.6691 18.6878 16.4073C17.8274 16.2154 17.2086 15.648 15.8429 15.5619C14.1893 15.4578 12.8067 16.3797 12.594 17.9886C12.538 18.4131 12.3679 19.0017 12.3138 19.4745C12.0166 22.0682 10.7722 21.9849 10.2725 23.0757C9.94719 23.786 8.79045 23.8384 8.0944 23.5925C7.34667 23.3285 6.63399 22.9629 6.31886 24.0276C6.1254 24.6812 6.0172 24.7558 5.73923 25.2863C5.10654 26.4937 6.55968 27.2302 5.2038 27.9036C4.21946 28.3924 3.28101 27.4038 1.85597 29.2346C0.495244 30.983 0.0681222 33.6695 0.450617 35.8313C0.584184 36.5862 0.371886 36.7764 0.277684 37.4604C0.128117 38.5466 0.00170669 39.7344 2.26167e-05 40.8356C-0.00418756 43.4367 0.579658 46.522 1.53884 48.5516C1.93765 49.3955 2.33951 50.2498 2.84852 51.0103C3.30701 51.6955 3.80813 52.5222 4.3584 53.1966C6.6842 56.0467 8.7054 58.658 11.7467 60.7401C16.5784 64.0481 22.2853 61.8504 24.0459 63.4317C24.8727 64.1742 24.8118 64.9768 24.8318 66.3907C24.845 67.3197 25.1806 71.1238 25.4891 72.2954C25.5568 72.5524 25.6011 72.7697 25.6575 72.979C25.7938 73.4854 25.8619 73.9845 26.0217 74.4945C26.1583 74.9301 26.3213 75.4377 26.4508 75.8672C26.7446 76.8424 27.1106 77.662 27.5321 78.5739C29.2446 82.2789 28.8312 83.7491 27.6198 87.5555C27.0037 89.4918 24.9607 92.6646 25.5034 94.6489C25.6497 95.1839 25.7693 95.5261 26.1531 95.8589C27.7671 97.2588 31.0177 96.8393 31.5603 97.9311C31.9918 98.7993 31.0347 99.8795 30.7698 100.597C30.3955 101.611 31.1794 102.81 31.7079 103.222C32.4698 103.815 33.3183 104.073 34.1832 104.427C34.087 104.998 33.0126 105.655 33.6716 107.467C34.5902 109.994 37.3784 107.704 38.6099 109.407C38.7028 109.535 38.8695 109.93 38.8992 110.051C39.0337 110.599 39.0483 111.229 39.2065 111.775C40.0737 114.767 43.1562 114.832 45.8544 113.868C48.4231 112.951 50.9032 110.875 53.0937 109.262C54.5984 108.154 56.0545 106.923 57.689 106.022C58.6535 105.49 59.6489 104.991 60.2849 106.073C61.2617 107.735 62.0577 110.646 62.6063 112.578C63.7307 116.537 64.4494 117.012 61.9887 120.763C60.2921 123.35 57.1706 127.177 54.9781 129.405C52.1479 132.281 51.6989 132.514 48.6083 134.804C47.795 135.406 47.1439 135.885 46.3414 136.521C44.0638 138.323 42.4053 140.628 41.3359 143.261C40.9141 144.3 39.5185 148.487 40.572 149.624C40.977 150.061 41.5112 149.995 42.2441 149.998C42.8885 150 43.5333 149.996 44.178 149.997C45.4916 150 46.8063 149.999 48.12 149.997L95.5733 149.996C98.2012 149.992 100.829 150 103.457 149.997C104.969 149.994 105.601 149.902 106.575 149.14C107.988 148.035 109.519 144.335 109.804 142.47C109.884 141.951 109.945 141.389 110.041 140.811C110.357 138.917 109.778 135.442 109.306 133.816C109.136 133.228 109.046 132.805 108.883 132.25C107.9 128.898 106.828 125.416 105.097 122.418C103.132 119.015 101.763 117.576 98.8671 114.833C98.1219 114.127 97.5065 113.767 96.7402 113.039C96.3682 112.685 96.0816 112.506 95.7103 112.145C94.3293 110.803 93.1979 109.434 92.3543 107.682C92.0937 107.141 91.4465 105.078 92.1518 104.531C92.365 104.618 92.3162 104.563 92.4426 104.802C93.2001 106.231 93.8194 107.705 95.4818 108.402C97.3687 109.192 98.0963 108.575 99.7176 107.931C100.192 107.743 100.608 107.634 101.062 107.503C104.333 106.558 106.16 108.555 107.015 106.991C107.967 105.249 105.365 102.796 106.41 101.394C106.86 100.79 108.057 100.543 108.866 100.228C109.842 99.847 110.548 99.4585 111.713 99.4595C112.924 99.4607 113.95 99.9137 114.947 99.7787C116.184 99.6109 116.63 100.241 117.668 100.517C118.808 100.819 119.588 100.077 119.958 99.3536C120.342 98.6029 120.582 97.2256 120.344 96.216C120.268 95.8918 119.971 95.1034 120.215 94.7601C120.482 94.385 120.791 94.1953 120.824 93.5608C120.842 93.2208 120.763 93.0952 120.98 92.8706C121.628 92.2003 122.768 92.1308 122.758 90.1065C122.748 88.18 124.741 89.1088 125.538 87.6056C125.74 87.2235 125.804 86.7341 126.022 86.3073C126.625 85.1275 127.761 84.4211 128.368 83.3474C128.994 82.2389 128.472 81.2416 129.292 80.6666C130.037 80.1436 130.551 79.5625 130.883 78.7006C131.981 75.8431 130.609 75.6193 130.106 74.9589C129.503 74.1666 131.26 73.0433 129.135 70.9973C128.825 70.699 128.377 70.4835 128.33 69.9921C128.276 69.4379 128.592 68.9684 128.628 68.4515C128.742 66.8201 127.987 64.6857 128.212 63.6403C128.31 63.1838 128.481 62.7606 128.67 62.3369C129.044 61.4939 129.384 60.6218 129.515 59.5708C129.706 58.0511 130.408 58.9137 129.745 56.9657C129.589 56.5081 129.342 56.0854 129.521 55.4707C129.625 55.1139 129.96 54.7037 130.199 54.3863C130.481 54.0113 130.725 53.707 130.686 53.0962C130.65 52.5212 130.214 52.4712 130.229 51.7774C130.813 51.0382 132.14 51.381 131.988 49.866C131.89 48.8882 130.833 48.5283 130.163 48.034C128.824 47.0477 129.414 45.2249 126.8 44.2199C125.912 43.8787 124.686 43.778 125.14 42.3447C125.396 41.5361 126.098 40.6295 125.97 39.5921C125.713 37.496 122.591 38.2017 121.697 36.708C120.84 35.2754 122.847 32.8628 123.019 31.2891C123.098 30.5705 122.699 28.8323 122.521 28.1945C121.664 25.1424 119.753 26.1023 119.002 24.5362C118.592 23.6816 118.571 22.5584 118.307 21.6315C117.859 20.0601 116.307 18.6156 114.87 17.8978C113.883 17.4051 113.081 17.3489 111.935 17.1592C111.047 17.0121 110.588 16.04 109.741 15.7508C107.675 15.0458 107.058 17.2326 105.689 16.3008C105.435 16.128 104.944 15.6623 104.755 15.4698C101.3 11.9515 98.9842 13.797 98.0796 11.2746C97.904 10.7851 97.8503 10.3423 97.6944 9.89048C96.6637 6.90307 91.2382 4.06498 87.9727 3.39121C85.4425 2.86915 83.6521 3.87389 81.2936 3.25415L79.7577 2.90614C79.3182 2.79391 78.858 2.73281 78.3337 2.57985C77.4792 2.33046 76.3413 2.34677 75.8543 1.47722L75.8549 1.47743Z" fill="#3A3A3A"/>
</svg>
