<?xml version="1.0" encoding="UTF-8"?>
<!DOCTYPE svg PUBLIC "-//W3C//DTD SVG 1.1//EN" "http://www.w3.org/Graphics/SVG/1.1/DTD/svg11.dtd">
<!-- Creator: CorelDRAW (Versão de avaliação) -->
<svg xmlns="http://www.w3.org/2000/svg" xml:space="preserve" width="150.26mm" height="172.952mm" version="1.1" style="shape-rendering:geometricPrecision; text-rendering:geometricPrecision; image-rendering:optimizeQuality; fill-rule:evenodd; clip-rule:evenodd"
viewBox="0 0 12541.12 14435.08"
 xmlns:xlink="http://www.w3.org/1999/xlink"
 xmlns:xodm="http://www.corel.com/coreldraw/odm/2003">
 <defs>
  <style type="text/css">
   <![CDATA[
    .fil0 {fill:#1E1D1C}
   ]]>
  </style>
 </defs>
 <g id="Camada_x0020_1">
  <metadata id="CorelCorpID_0Corel-Layer"/>
  <path class="fil0" d="M10711.47 6417.25c-0.13,-328.03 96.4,-735.61 359.76,-820.77 88.4,-28.59 185.77,7.23 237.04,48.53 110.49,89.05 165.25,271.51 170.99,419.08 2.12,54.63 14.48,78.52 6.55,139.32 -5.96,45.71 -4.56,86.88 -7.47,135.94l-17.94 128.32c-32.33,132.51 -44.39,210.31 -96.84,347 -139.44,363.33 -438.46,551.43 -581.95,168.69 -65.24,-174.04 -70.09,-355.05 -70.14,-566.11zm-6968.04 -3001.33c3.27,-21.27 7.48,-19.45 11.28,-44.37 10.72,-70.34 27.52,-131.03 44.82,-198.27 91.33,-354.89 348.74,-836.67 574.91,-1129.41 220.71,-285.68 413.76,-524.15 752.03,-711.2 191.74,-106.02 511.06,-213.64 761.95,-103.69 210.67,92.32 219.18,201.49 451.43,282.38 301.43,105 806.69,7.07 1074.78,-51.58 70.23,-15.37 135.55,-28.62 204.62,-43.43 266.48,-57.13 783.23,-244.31 948.61,36.1 135.14,229.15 33.47,367.13 539.86,923.77 146.23,160.75 307.19,316.78 510.51,465.02 53.78,39.21 99.79,69.82 146.55,100.48 153,100.3 347.77,192.59 537.99,192.73 205.76,0.15 237.29,-50.07 378.3,-111.54 69.03,-30.09 144.29,-26.84 189.46,21.41 128.76,137.53 32.8,469.32 -8.78,597.96 -105.1,325.15 -178.96,404.35 -302.07,671.58 -66.9,145.22 -87.64,179.7 -147.84,339.83 -75.63,201.2 -154.21,648.41 -127.48,842.63 5.43,39.52 6.23,77.08 7.2,122.89l41.73 317.22c1.64,40.2 -2.31,82.83 5.08,120.48 29.62,150.81 -21.22,486.45 -57.5,658.39 -34.4,163.04 -57.84,232.73 -103.02,384.15l-95.63 269.95c-25.89,61.75 -41.67,116.71 -67.96,172.95 -145.98,312.29 -147.04,337.5 -334.36,639.28 -70.44,113.49 -135.57,184.88 -209.28,279.61 -111.28,143.01 -311.04,297.47 -493.72,362.5 -28.71,10.22 -60.54,16.96 -93.87,26.07 -143.65,39.26 -310.4,-11.92 -397.57,-78.68 -159.72,-122.33 -309,-387.64 -406.38,-567.66 -112.18,-207.4 -230.47,-434.7 -326.84,-648.69 -27.1,-60.18 -49.44,-114.68 -73.55,-173.85 -60.79,-149.24 -78.86,-213.22 -118.72,-368.15 -49.84,-193.73 -29.09,-428.42 -99.14,-629.18 -63.23,-181.21 -156.12,-322.9 -257.12,-478.69 -31.72,-48.93 -65.54,-100.42 -97.16,-143.06 -131.85,-177.78 -276.02,-365.2 -444.24,-530.49 -181.6,-178.44 -370.65,-339.25 -648.97,-329.62 -185.66,6.43 -315.93,105.19 -461.11,155.52 -101.77,35.29 -155.36,62.41 -276.53,83.02 -655.03,111.41 -1282.7,-305.79 -1477.95,-908.28 -76.35,-235.6 -47.32,-227.43 -75.31,-412.12 -9.82,-64.76 8.56,-323.48 20.95,-403.98zm3463.4 -3273.74c-241.92,-188.44 -464.86,-190.7 -668.1,0l-174.81 188.23c-88.76,99.05 -187.02,173.87 -306.89,230.18 -29.23,13.74 -97.68,38.43 -135.08,42.07 -328.59,31.98 -332.65,-204.34 -405.7,-309.36 -122.25,-175.76 -343.53,-162.93 -519.24,-79.87 -116.16,54.92 -117.61,101.79 -196.47,157.75 -121.45,86.17 -270.08,-133.77 -474.68,83.13 -146.08,154.87 -106.9,331.45 -204.48,416.76 -36.38,31.8 -85.07,45.13 -131.99,22.2 -151.29,-73.91 -125.76,-360.18 -350.05,-361.09 -173.69,-0.7 -367.59,159.86 -467.78,244.55 -251.21,212.35 -170.89,364.35 -416.43,480.32 -42.4,20.03 -92.59,23.37 -140.33,36.34 -55.46,15.07 -85.58,17.95 -117.97,59.87 -27.57,35.68 -42.86,76.02 -52.56,125.24 -19.56,99.3 -52.2,199.79 -125.87,233.97 -112.08,52 -161.64,-59.48 -228.71,-112.36 -84.16,-66.37 -202.63,4.02 -314.19,-21.17 -81.75,-18.47 -140.54,-73.07 -270.29,-81.36 -157.11,-10.02 -288.46,78.7 -308.67,233.53 -5.32,40.85 -21.48,97.5 -26.62,143 -28.24,249.6 -146.47,241.58 -193.94,346.55 -30.91,68.36 -140.81,73.4 -206.94,49.74 -71.04,-25.41 -138.75,-60.59 -168.69,41.87 -18.38,62.9 -28.66,70.08 -55.07,121.13 -60.11,116.19 77.95,187.07 -50.87,251.87 -93.52,47.04 -182.68,-48.1 -318.07,128.09 -129.28,168.25 -169.86,426.79 -133.52,634.82 12.69,72.65 -7.48,90.95 -16.43,156.78 -14.21,104.53 -26.22,218.83 -26.38,324.81 -0.4,250.31 55.07,547.22 146.2,742.54 37.89,81.21 76.07,163.42 124.43,236.61 43.56,65.94 91.17,145.49 143.45,210.39 220.97,274.28 413,525.57 701.95,725.94 459.05,318.34 1001.25,106.85 1168.52,259.03 78.55,71.45 72.77,148.69 74.67,284.75 1.25,89.4 33.14,455.49 62.45,568.23 6.43,24.74 10.64,45.65 15.99,65.79 12.95,48.73 19.42,96.76 34.61,145.84 12.97,41.92 28.46,90.77 40.76,132.1 27.92,93.85 62.69,172.72 102.74,260.48 162.7,356.54 123.42,498.03 8.33,864.33 -58.54,186.34 -252.64,491.67 -201.08,682.63 13.9,51.48 25.27,84.41 61.73,116.44 153.34,134.71 462.18,94.35 513.73,199.41 40.99,83.55 -49.94,187.51 -75.11,256.59 -35.56,97.57 38.92,212.96 89.13,252.55 72.39,57.06 153,81.91 235.17,116.02 -9.14,54.88 -111.21,118.13 -48.6,292.56 87.27,243.14 352.17,22.78 469.18,186.66 8.82,12.34 24.66,50.32 27.48,61.96 12.78,52.73 14.17,113.33 29.2,165.87 82.39,288.01 375.25,294.23 631.6,201.5 244.05,-88.28 479.68,-288.06 687.79,-443.31 142.96,-106.64 281.3,-225.03 436.59,-311.77 91.64,-51.18 186.21,-99.22 246.63,4.92 92.81,159.94 168.43,440.03 220.55,625.94 106.83,381.06 175.11,426.7 -58.67,787.76 -161.19,248.93 -457.76,617.23 -666.07,831.6 -268.89,276.74 -311.55,299.22 -605.18,519.55 -77.27,57.98 -139.13,104.09 -215.37,165.21 -216.39,173.48 -373.96,395.29 -475.56,648.68 -40.08,99.96 -172.67,502.86 -72.58,612.31 38.48,42.07 89.23,35.76 158.86,35.97 61.23,0.19 122.49,-0.15 183.74,-0.02 124.8,0.27 249.71,0.13 374.52,-0.02l4508.44 -0.08c249.67,-0.4 499.38,0.39 749.05,0.01 143.64,-0.22 203.63,-9.11 296.24,-82.46 134.24,-106.32 279.68,-462.33 306.78,-641.87 7.55,-49.94 13.35,-104.03 22.5,-159.67 29.98,-182.2 -25.02,-516.65 -69.84,-673.16 -16.18,-56.52 -24.71,-97.22 -40.2,-150.69 -93.4,-322.57 -195.25,-657.6 -359.7,-946.12 -186.66,-327.49 -316.75,-465.99 -591.89,-729.96 -70.8,-67.94 -129.27,-102.58 -202.07,-172.66 -35.35,-34.03 -62.58,-51.25 -97.85,-85.97 -131.21,-129.19 -238.7,-260.95 -318.85,-429.5 -24.76,-52.06 -86.25,-250.6 -19.24,-303.3 20.26,8.45 15.62,3.11 27.63,26.07 71.97,137.6 130.81,279.39 288.75,346.45 179.27,76.11 248.4,16.7 402.43,-45.25 45.12,-18.14 84.63,-28.65 127.75,-41.27 310.71,-90.92 484.33,101.27 565.52,-49.19 90.5,-167.71 -156.71,-403.77 -57.46,-538.69 42.74,-58.11 156.53,-81.88 233.36,-112.22 92.72,-36.62 159.85,-74.01 270.52,-73.91 114.99,0.11 212.46,43.71 307.2,30.71 117.59,-16.14 159.92,44.54 258.58,71.02 108.27,29.06 182.37,-42.28 217.55,-111.92 36.51,-72.25 59.23,-204.79 36.69,-301.95 -7.24,-31.2 -35.52,-107.07 -12.3,-140.1 25.36,-36.1 54.73,-54.36 57.91,-115.42 1.71,-32.72 -5.81,-44.8 14.8,-66.42 61.51,-64.5 169.81,-71.19 168.86,-266 -0.89,-185.39 188.49,-96.01 264.16,-240.67 19.23,-36.77 25.26,-83.87 45.97,-124.94 57.28,-113.54 165.26,-181.51 222.9,-284.84 59.5,-106.68 9.92,-202.65 87.78,-257.98 70.8,-50.33 119.67,-106.26 151.14,-189.2 104.35,-274.99 -25.99,-296.53 -73.75,-360.08 -57.31,-76.24 109.62,-184.34 -92.3,-381.24 -29.43,-28.7 -72.01,-49.44 -76.51,-96.73 -5.07,-53.34 24.9,-98.52 28.34,-148.26 10.88,-157 -60.86,-362.4 -39.49,-463 9.32,-43.93 25.57,-84.66 43.45,-125.43 35.59,-81.13 67.85,-165.05 80.35,-266.19 18.08,-146.25 84.82,-63.24 21.84,-250.7 -14.8,-44.04 -38.32,-84.72 -21.31,-143.87 9.88,-34.34 41.69,-73.81 64.41,-104.36 26.83,-36.09 50.01,-65.37 46.31,-124.15 -3.47,-55.33 -44.89,-60.15 -43.43,-126.91 55.43,-71.14 181.56,-38.15 167.1,-183.94 -9.33,-94.1 -109.71,-128.74 -173.43,-176.3 -127.19,-94.92 -71.07,-270.33 -319.47,-367.05 -84.32,-32.83 -200.83,-42.53 -157.69,-180.46 24.34,-77.81 90.96,-165.06 78.86,-264.89 -24.45,-201.72 -321.05,-133.8 -405.98,-277.55 -81.46,-137.86 109.29,-370.04 125.63,-521.48 7.46,-69.15 -30.4,-236.43 -47.4,-297.8 -81.36,-293.72 -262.9,-201.35 -334.31,-352.06 -38.97,-82.24 -40.95,-190.33 -66.03,-279.53 -42.52,-151.22 -189.97,-290.23 -326.55,-359.31 -93.72,-47.41 -169.9,-52.82 -278.77,-71.07 -84.42,-14.16 -127.98,-107.71 -208.52,-135.54 -196.29,-67.84 -254.85,142.6 -384.99,52.93 -24.13,-16.63 -70.73,-61.45 -88.69,-79.97 -328.23,-338.58 -548.28,-160.98 -634.22,-403.72 -16.68,-47.11 -21.79,-89.72 -36.6,-133.2 -97.92,-287.49 -613.39,-560.61 -923.64,-625.45 -240.39,-50.24 -410.49,46.45 -634.56,-13.19l-145.93 -33.49c-41.75,-10.8 -85.48,-16.68 -135.29,-31.4 -81.18,-24 -189.29,-22.43 -235.56,-106.11z"/>
 </g>
</svg>
